HIERARCHY
ROOT joint_Root
{
	OFFSET 0.0 0.0 0.0
	CHANNELS 6 Xposition Yposition Zposition Zrotation Xrotation Yrotation 
	JOINT Hips
	{
		OFFSET 4.5925 91.4895 -427.239
		CHANNELS 6 Xposition Yposition Zposition Zrotation Xrotation Yrotation 
		JOINT Spine
		{
			OFFSET 15.7357 0.0 0.0
			CHANNELS 6 Xposition Yposition Zposition Zrotation Xrotation Yrotation 
			JOINT Chest
			{
				OFFSET 8.98455 -0.406207 0.0
				CHANNELS 6 Xposition Yposition Zposition Zrotation Xrotation Yrotation 
				JOINT Neck
				{
					OFFSET 16.3773 0.0 0.0
					CHANNELS 6 Xposition Yposition Zposition Zrotation Xrotation Yrotation 
					JOINT Head
					{
						OFFSET 6.45672 0.0 0.0
						CHANNELS 6 Xposition Yposition Zposition Zrotation Xrotation Yrotation 
						End Site
						{
							OFFSET 0.0 0.0 0.0
						}
					}
				}
				JOINT Shoulder_L
				{
					OFFSET 12.9942 -0.242716 4.98039
					CHANNELS 6 Xposition Yposition Zposition Zrotation Xrotation Yrotation 
					JOINT UpperArm_L
					{
						OFFSET 5.34809 0.0 0.0
						CHANNELS 6 Xposition Yposition Zposition Zrotation Xrotation Yrotation 
						JOINT LowerArm_L
						{
							OFFSET 24.3286 1.87007e-05 0.0
							CHANNELS 6 Xposition Yposition Zposition Zrotation Xrotation Yrotation 
							JOINT Hand_L
							{
								OFFSET 22.2916 0.0 0.0
								CHANNELS 6 Xposition Yposition Zposition Zrotation Xrotation Yrotation 
								End Site
								{
									OFFSET 0.0 0.0 0.0
								}
							}
						}
					}
				}
				JOINT Shoulder_R
				{
					OFFSET 12.9945 -0.242716 -4.98039
					CHANNELS 6 Xposition Yposition Zposition Zrotation Xrotation Yrotation 
					JOINT UpperArm_R
					{
						OFFSET -5.34813 0.0 0.0
						CHANNELS 6 Xposition Yposition Zposition Zrotation Xrotation Yrotation 
						JOINT LowerArm_R
						{
							OFFSET -24.3289 0.000322201 0.0
							CHANNELS 6 Xposition Yposition Zposition Zrotation Xrotation Yrotation 
							JOINT Hand_R
							{
								OFFSET -22.2915 -0.000108084 0.0
								CHANNELS 6 Xposition Yposition Zposition Zrotation Xrotation Yrotation 
								End Site
								{
									OFFSET 0.0 0.0 0.0
								}
							}
						}
					}
				}
			}
		}
		JOINT UpperLeg_L
		{
			OFFSET -2.19248 -6.46944 0.0
			CHANNELS 6 Xposition Yposition Zposition Zrotation Xrotation Yrotation 
			JOINT LowerLeg_L
			{
				OFFSET 39.0811 0.0 -1.23785e-05
				CHANNELS 6 Xposition Yposition Zposition Zrotation Xrotation Yrotation 
				JOINT Foot_L
				{
					OFFSET 40.9854 0.0 -1.26872e-05
					CHANNELS 6 Xposition Yposition Zposition Zrotation Xrotation Yrotation 
					JOINT Toes_L
					{
						OFFSET 11.7543 0.0 0.0
						CHANNELS 6 Xposition Yposition Zposition Zrotation Xrotation Yrotation 
						End Site
						{
							OFFSET 0.0 0.0 0.0
						}
					}
				}
			}
		}
		JOINT UpperLeg_R
		{
			OFFSET -2.19251 6.46944 0.0
			CHANNELS 6 Xposition Yposition Zposition Zrotation Xrotation Yrotation 
			JOINT LowerLeg_R
			{
				OFFSET -39.0811 -0.00228153 -0.0401928
				CHANNELS 6 Xposition Yposition Zposition Zrotation Xrotation Yrotation 
				JOINT Foot_R
				{
					OFFSET -40.9854 0.0 0.0
					CHANNELS 6 Xposition Yposition Zposition Zrotation Xrotation Yrotation 
					JOINT Toes_R
					{
						OFFSET -11.7543 0.0 0.0
						CHANNELS 6 Xposition Yposition Zposition Zrotation Xrotation Yrotation 
						End Site
						{
							OFFSET 0.0 0.0 0.0
						}
					}
				}
			}
		}
	}
}
MOTION
Frames:	6
Frame Time:	0.0333333
0.000000 0.000000 0.000000 0.000000 0.000000 -0.000000 -0.966968 90.867800 0.902304 89.826800 -3.846010 9.628170 15.735700 0.000005 -0.000001 85.156900 83.397000 -85.025300 8.984550 -0.406207 -0.000000 5.394980 -1.115150 0.315486 16.377300 -0.000001 -0.000001 11.516700 -3.543200 1.679010 6.456720 -0.000001 -0.000000 8.160850 -2.923980 -2.617930 12.994200 -0.242716 4.980390 -91.351000 4.680320 -73.879500 5.348090 -0.000007 -0.000001 -63.849500 38.843800 -14.475900 24.328600 0.000019 0.000005 8.492890 22.610100 -21.226000 22.291600 -0.000001 0.000005 6.733150 5.292890 0.270014 12.994500 -0.242716 -4.980390 88.511800 9.555780 -81.105700 -5.348130 -0.000001 -0.000004 -63.940100 32.958900 -8.805570 -24.328900 0.000322 -0.000009 1.774620 5.606260 -17.606200 -22.291500 -0.000108 -0.000004 11.517600 5.392050 -2.680920 -2.192480 -6.469440 -0.000000 -174.307000 -13.442000 1.032430 39.081100 -0.000007 -0.000012 -0.187546 0.330380 29.582500 40.985400 -0.000006 -0.000013 -0.287549 5.307090 -70.514600 11.754300 -0.000000 0.000003 -0.000199 -0.001846 -16.647200 -2.192510 6.469440 -0.000001 173.539000 21.064200 -177.724000 -39.081100 -0.002282 -0.040193 -0.196500 0.357219 29.219900 -40.985400 0.000008 0.000006 4.180720 15.738600 -71.584500 -11.754300 -0.000006 -0.000006 -0.002000 -0.028722 -17.741000
0.000000 0.000000 0.000000 0.000000 0.000000 -0.000000 -1.001620 90.864100 0.844837 89.835300 -3.809750 9.719460 15.735700 0.000005 -0.000001 85.109700 83.404700 -84.988100 8.984550 -0.406207 -0.000000 5.378590 -1.124480 0.295884 16.377300 -0.000001 -0.000001 11.652600 -3.664500 1.843610 6.456720 -0.000001 -0.000000 8.330210 -3.060980 -2.610810 12.994200 -0.242716 4.980390 -91.323600 4.602290 -73.936400 5.348090 -0.000007 -0.000001 -63.250700 38.142400 -14.900500 24.328600 0.000019 0.000005 9.100840 23.222700 -22.109600 22.291600 -0.000001 0.000005 6.512620 5.301340 0.034568 12.994500 -0.242716 -4.980390 88.536100 9.463510 -81.165200 -5.348130 -0.000001 -0.000004 -63.946200 32.920400 -8.978450 -24.328900 0.000322 -0.000009 1.731220 5.408350 -17.789800 -22.291500 -0.000108 -0.000004 11.554000 5.394050 -2.745250 -2.192480 -6.469440 -0.000000 -174.292000 -13.335700 1.060600 39.081100 -0.000007 -0.000012 -0.190905 0.335824 29.617200 40.985400 -0.000006 -0.000013 -0.319146 5.278660 -70.488100 11.754300 -0.000000 0.000003 -0.000191 -0.001780 -16.644800 -2.192510 6.469440 -0.000001 173.540000 21.078000 -177.686000 -39.081100 -0.002282 -0.040193 -0.194777 0.353387 29.271800 -40.985400 0.000008 0.000006 4.213640 15.697800 -71.588700 -11.754300 -0.000006 -0.000006 -0.002204 -0.031243 -17.843500
0.000000 0.000000 0.000000 0.000000 0.000000 -0.000000 -1.029050 90.864800 0.820845 89.834600 -3.796090 9.852470 15.735700 0.000005 -0.000001 85.246200 83.414300 -85.116300 8.984550 -0.406207 -0.000000 5.361980 -1.091830 0.310773 16.377300 -0.000001 -0.000001 11.814700 -3.827990 1.985760 6.456720 -0.000001 -0.000000 8.566990 -3.236410 -2.569860 12.994200 -0.242716 4.980390 -91.333700 4.659750 -74.008100 5.348090 -0.000007 -0.000001 -61.816800 37.203800 -15.632500 24.328600 0.000019 0.000005 9.982670 23.584300 -23.745500 22.291600 -0.000001 0.000005 5.948410 5.311670 -0.258852 12.994500 -0.242716 -4.980390 88.568000 9.301210 -81.207500 -5.348130 -0.000001 -0.000004 -64.072800 32.885800 -9.091040 -24.328900 0.000322 -0.000009 1.753100 5.403200 -18.016200 -22.291500 -0.000108 -0.000004 11.612600 5.395020 -2.776730 -2.192480 -6.469440 -0.000000 -174.221000 -13.415100 1.189430 39.081100 -0.000007 -0.000012 -0.188264 0.331183 29.616700 40.985400 -0.000006 -0.000013 -0.308944 5.375750 -70.470300 11.754300 -0.000000 0.000003 -0.000198 -0.001839 -16.647000 -2.192510 6.469440 -0.000001 173.491000 21.129000 -177.544000 -39.081100 -0.002282 -0.040193 -0.194360 0.352668 29.270100 -40.985400 0.000008 0.000006 4.253460 15.760400 -71.592900 -11.754300 -0.000006 -0.000006 -0.002054 -0.029396 -17.768400
0.000000 0.000000 0.000000 0.000000 0.000000 -0.000000 -1.067590 90.861100 0.755921 89.866600 -3.657480 9.970940 15.735700 0.000005 -0.000001 85.244800 83.413400 -85.123700 8.984550 -0.406207 -0.000000 5.363710 -1.092130 0.292960 16.377300 -0.000001 -0.000001 11.964600 -4.006270 2.159180 6.456720 -0.000001 -0.000000 8.768210 -3.446090 -2.388640 12.994200 -0.242716 4.980390 -91.354100 4.741120 -74.040500 5.348090 -0.000007 -0.000001 -59.548300 35.862000 -16.855300 24.328600 0.000019 0.000005 11.220200 23.747600 -26.224300 22.291600 -0.000001 0.000005 5.273140 5.317600 -0.426771 12.994500 -0.242716 -4.980390 88.595600 9.171050 -81.255500 -5.348130 -0.000001 -0.000004 -64.203900 32.932100 -9.223810 -24.328900 0.000322 -0.000009 1.710910 5.190640 -18.281900 -22.291500 -0.000108 -0.000004 11.603600 5.395320 -2.785960 -2.192480 -6.469440 -0.000000 -174.207000 -13.344500 1.227340 39.081100 -0.000007 -0.000012 -0.189629 0.333156 29.648300 40.985400 -0.000006 -0.000013 -0.310072 5.469700 -70.423900 11.754300 -0.000000 0.000003 -0.000194 -0.001801 -16.645600 -2.192510 6.469440 -0.000001 173.425000 21.269300 -177.470000 -39.081100 -0.002282 -0.040193 -0.193770 0.350672 29.335700 -40.985400 0.000008 0.000006 4.300600 15.762200 -71.607100 -11.754300 -0.000006 -0.000006 -0.002284 -0.032218 -17.883200
0.000000 0.000000 0.000000 0.000000 0.000000 -0.000000 -1.111360 90.858200 0.691465 89.893900 -3.468260 10.130600 15.735700 0.000005 -0.000001 85.337200 83.402200 -85.219600 8.984550 -0.406207 -0.000000 5.387770 -1.072700 0.285488 16.377300 -0.000001 -0.000001 12.200800 -4.201000 2.358030 6.456720 -0.000001 -0.000000 8.916840 -3.721550 -2.110350 12.994200 -0.242716 4.980390 -91.336400 4.687110 -74.066600 5.348090 -0.000007 -0.000001 -56.933100 34.042300 -18.438300 24.328600 0.000019 0.000005 12.158400 23.020700 -28.851700 22.291600 -0.000001 0.000005 5.498590 5.324440 -0.623755 12.994500 -0.242716 -4.980390 88.614800 9.099250 -81.306800 -5.348130 -0.000001 -0.000004 -64.282800 32.998400 -9.259060 -24.328900 0.000322 -0.000009 1.665470 4.948560 -18.638500 -22.291500 -0.000108 -0.000004 11.482400 5.397450 -2.854650 -2.192480 -6.469440 -0.000000 -174.197000 -13.212600 1.299650 39.081100 -0.000007 -0.000012 -0.189298 0.332161 29.679100 40.985400 -0.000006 -0.000013 -0.318370 5.529240 -70.374400 11.754300 -0.000000 0.000003 -0.000197 -0.001826 -16.646500 -2.192510 6.469440 -0.000001 173.360000 21.361200 -177.344000 -39.081100 -0.002282 -0.040193 -0.195956 0.353819 29.387000 -40.985400 0.000008 0.000006 4.326780 15.694200 -71.613800 -11.754300 -0.000006 -0.000006 -0.002143 -0.030497 -17.813200
0.000000 0.000000 0.000000 0.000000 0.000000 -0.000000 -1.161440 90.859100 0.609142 89.937900 -3.217410 10.233600 15.735700 0.000005 -0.000001 85.377600 83.380600 -85.251500 8.984550 -0.406207 -0.000000 5.431680 -1.067030 0.302419 16.377300 -0.000001 -0.000001 12.389800 -4.360160 2.509610 6.456720 -0.000001 -0.000000 9.081660 -4.003360 -1.707890 12.994200 -0.242716 4.980390 -91.284700 4.524090 -74.128700 5.348090 -0.000007 -0.000001 -54.360800 31.318000 -20.379600 24.328600 0.000019 0.000005 13.054200 22.301500 -31.425000 22.291600 -0.000001 0.000005 5.692790 5.325390 -0.651173 12.994500 -0.242716 -4.980390 88.636900 9.086030 -81.431400 -5.348130 -0.000001 -0.000004 -64.230300 33.088500 -9.351560 -24.328900 0.000322 -0.000009 1.651480 4.820310 -18.948800 -22.291500 -0.000108 -0.000004 11.491000 5.400260 -2.945820 -2.192480 -6.469440 -0.000000 -174.238000 -13.008500 1.288330 39.081100 -0.000007 -0.000012 -0.189769 0.332749 29.696700 40.985400 -0.000006 -0.000013 -0.331975 5.567660 -70.295100 11.754300 -0.000000 0.000003 -0.000182 -0.001710 -16.642200 -2.192510 6.469440 -0.000001 173.294000 21.525900 -177.265000 -39.081100 -0.002282 -0.040193 -0.194320 0.350312 29.429100 -40.985400 0.000008 0.000006 4.350120 15.606500 -71.616600 -11.754300 -0.000006 -0.000006 -0.002276 -0.032117 -17.879100
